<?xml version="1.0" encoding="iso-8859-1"?>
<!-- Uploaded to: SVG Repo, www.svgrepo.com, Generator: SVG Repo Mixer Tools -->
<svg height="800px" width="800px" version="1.1" id="Layer_1" xmlns="http://www.w3.org/2000/svg" xmlns:xlink="http://www.w3.org/1999/xlink" 
	 viewBox="0 0 512 512" xml:space="preserve">
<path style="fill:#91DDE2;" d="M481.74,324.607c-22.401,25.509-55.565,57.464-94.839,77.415
	c-22.646,11.514-47.312,19.032-73.143,19.032c-109.936,0-214.36-136.257-214.36-136.257S203.822,148.54,313.758,148.54
	c25.83,0,50.497,7.518,73.143,19.032c39.274,19.951,72.439,51.906,94.839,77.415C501.737,267.74,501.737,301.854,481.74,324.607z"/>
<g>
	<path style="fill:#126B80;" d="M99.488,284.915c-22.038,0.415-46.752,5.165-62.887,21.3
		C1.409,341.406,20.366,417.419,20.366,417.419s76.014,18.957,111.206-16.235c15.292-15.292,20.357-38.291,21.199-59.413
		C121.322,312.922,100.963,286.821,99.488,284.915z"/>
	<path style="fill:#126B80;" d="M99.398,284.797c0,0,20.643-26.924,53.22-56.833c-1.2-20.257-6.489-41.797-21.046-56.354
		C96.38,136.42,20.366,155.375,20.366,155.375S1.409,231.387,36.601,266.579c16.717,16.717,42.644,21.212,65.261,21.329
		C100.252,285.91,99.398,284.797,99.398,284.797z"/>
</g>
<path style="fill:#009CB8;" d="M313.758,148.54c25.036,0,48.972,7.075,71.042,17.993c-7.374-19.142-25.389-56.092-58.589-70.411
	c-45.699-19.714-102.852,10.923-102.852,10.923s8.071,29.814,28.092,54.771C271.542,153.627,292.546,148.54,313.758,148.54z"/>
<path d="M350.841,225.39c-0.994,0-1.991-0.107-2.984-0.306c-0.981-0.199-1.946-0.49-2.863-0.873
	c-0.92-0.383-1.808-0.857-2.649-1.409c-0.827-0.55-1.623-1.194-2.327-1.899c-0.704-0.704-1.347-1.485-1.899-2.327
	c-0.551-0.827-1.026-1.715-1.409-2.649c-0.383-0.919-0.674-1.882-0.873-2.862c-0.199-0.981-0.306-1.992-0.306-2.986
	c0-0.995,0.107-2.007,0.306-2.986s0.49-1.946,0.873-2.879c0.383-0.92,0.857-1.807,1.409-2.634c0.551-0.844,1.194-1.625,1.899-2.329
	c0.704-0.704,1.499-1.347,2.327-1.899c0.842-0.55,1.73-1.026,2.649-1.409c0.919-0.383,1.882-0.689,2.863-0.888
	c4.976-0.994,10.257,0.643,13.811,4.195c0.72,0.704,1.347,1.485,1.914,2.329c0.551,0.827,1.026,1.713,1.409,2.634
	c0.383,0.932,0.674,1.899,0.873,2.879c0.199,0.98,0.289,1.99,0.289,2.986c0,4.027-1.623,7.977-4.486,10.824
	c-0.704,0.704-1.485,1.349-2.327,1.899c-0.827,0.551-1.715,1.026-2.635,1.409c-0.919,0.383-1.882,0.674-2.863,0.873
	C352.847,225.283,351.852,225.39,350.841,225.39z"/>
<path d="M493.245,234.883c-21.499-24.481-55.492-57.808-96.372-79.346c-9.66-23.016-29.547-58.357-64.598-73.475
	c-51.887-22.381-113.55,10.095-116.15,11.49c-6.279,3.365-9.407,10.618-7.545,17.495c0.294,1.086,6.089,22.081,19.775,44.412
	c-23.747,11.819-45.778,27.12-65.039,42.835c-4.246-15.261-11.231-27.826-20.915-37.512
	c-40.854-40.848-122.294-21.122-125.741-20.265c-5.492,1.37-9.782,5.659-11.151,11.151c-0.861,3.447-20.583,84.888,20.265,125.735
	c3.32,3.32,6.982,6.313,10.957,8.997c-3.975,2.683-7.64,5.668-10.957,8.985C-15.075,336.234,4.649,417.676,5.51,421.122
	c1.37,5.492,5.659,9.783,11.151,11.151c1.712,0.426,22.669,5.509,48.337,5.509c26.003,0,56.844-5.217,77.401-25.772
	c10.246-10.246,17.46-23.701,21.614-40.147c40.9,33.235,94.144,64.501,149.746,64.501c26.129,0,53.073-6.962,80.077-20.692
	c42.244-21.462,77.373-55.87,99.407-80.959C518.252,306.257,518.252,263.338,493.245,234.883z M242.442,115.316
	c17.46-6.843,50.92-16.688,77.703-5.135c13.514,5.829,24.227,16.662,32.364,28.008c-0.21-0.054-0.42-0.096-0.629-0.15
	c-1.378-0.341-2.755-0.674-4.129-0.98c-0.289-0.064-0.577-0.119-0.867-0.182c-1.34-0.291-2.681-0.574-4.019-0.83
	c-0.328-0.063-0.655-0.116-0.985-0.176c-1.3-0.24-2.598-0.475-3.895-0.681c-0.366-0.06-0.732-0.106-1.099-0.161
	c-1.259-0.191-2.516-0.381-3.771-0.542c-0.41-0.054-0.819-0.092-1.23-0.141c-1.211-0.145-2.422-0.291-3.63-0.409
	c-0.455-0.044-0.909-0.072-1.364-0.112c-1.164-0.103-2.327-0.205-3.488-0.282c-0.478-0.031-0.954-0.044-1.432-0.07
	c-1.139-0.063-2.28-0.129-3.416-0.165c-0.224-0.008-0.447-0.005-0.672-0.011c-1.377-0.038-2.753-0.069-4.125-0.069
	c-2.131,0-4.258,0.06-6.382,0.15c-0.499,0.021-1.003,0.055-1.504,0.081c-1.732,0.09-3.459,0.21-5.183,0.357
	c-0.453,0.038-0.906,0.078-1.36,0.121c-14.405,1.361-28.588,4.679-42.376,9.443C250.257,133.25,245.5,122.965,242.442,115.316z
	 M47.429,255.753c-20.572-20.571-18.141-63.984-14.102-87.439c23.434-4.077,66.756-6.536,87.418,14.123
	c8.616,8.616,13.973,21.805,15.968,39.265c-21.84,20.644-37.701,39.214-45.045,48.223c-3.635,0.222-7.17,0.545-10.596,0.988
	C68.656,268.827,56.109,264.434,47.429,255.753z M120.745,390.357c-20.572,20.571-63.987,18.138-87.441,14.1
	c-4.076-23.433-6.536-66.756,14.126-87.418c8.724-8.723,21.366-13.09,33.691-15.158c4.278,0.55,8.711,0.937,13.313,1.142
	c8.227,9.867,23.021,26.692,42.574,45.146C135.675,362.51,131.616,379.488,120.745,390.357z M470.238,314.498
	c-0.002,0.002-0.002,0.003-0.003,0.005c-18.631,21.216-47.297,49.574-81.267,68.977c-27.155-25.598-42.551-61.022-42.551-98.682
	c0-7.98,0.695-15.973,2.069-23.756c1.467-8.326-4.094-16.268-12.422-17.737c-8.32-1.459-16.267,4.094-17.737,12.422
	c-0.818,4.639-1.432,9.34-1.853,14.067h-95.178c-8.455,0-15.311,6.856-15.311,15.311s6.856,15.311,15.311,15.311h95.237
	c3.379,36.284,18.467,70.143,43.013,96.831c-15.616,5.639-30.951,8.495-45.789,8.495c-84.914,0-169.256-91.135-194.573-120.953
	c8.241-9.721,22.744-25.95,41.489-43.413c0.299-0.277,0.596-0.554,0.896-0.831c25.44-23.58,58.531-49.237,94.363-64.092
	c0.435-0.133,0.867-0.283,1.295-0.456c15.974-6.51,31.459-10.426,46.173-11.689c0.207-0.017,0.415-0.034,0.622-0.051
	c0.893-0.072,1.782-0.135,2.669-0.188c0.491-0.029,0.985-0.051,1.476-0.072c0.672-0.032,1.344-0.064,2.013-0.086
	c0.972-0.029,1.946-0.043,2.918-0.047c0.219-0.002,0.439-0.009,0.657-0.009c1.122,0,2.248,0.025,3.376,0.057
	c0.171,0.005,0.34,0.003,0.511,0.009c0.9,0.031,1.805,0.084,2.71,0.135c0.413,0.023,0.825,0.035,1.239,0.064
	c0.903,0.06,1.811,0.142,2.718,0.224c0.413,0.037,0.825,0.064,1.24,0.106c0.932,0.092,1.866,0.207,2.802,0.32
	c0.39,0.047,0.781,0.086,1.171,0.138c0.974,0.127,1.952,0.277,2.931,0.429c0.351,0.055,0.7,0.101,1.05,0.158
	c1.012,0.165,2.027,0.351,3.042,0.542c0.318,0.06,0.637,0.113,0.957,0.175c1.043,0.202,2.089,0.426,3.134,0.655
	c0.294,0.064,0.586,0.122,0.879,0.19c1.073,0.242,2.15,0.504,3.226,0.773c0.266,0.067,0.531,0.129,0.798,0.198
	c1.102,0.283,2.208,0.585,3.315,0.897c0.242,0.067,0.482,0.132,0.723,0.201c1.128,0.323,2.258,0.668,3.39,1.021
	c0.222,0.069,0.443,0.135,0.665,0.205c1.15,0.366,2.303,0.749,3.457,1.145c0.204,0.069,0.406,0.136,0.609,0.207
	c1.171,0.407,2.346,0.833,3.52,1.272c0.185,0.069,0.369,0.136,0.554,0.205c1.193,0.45,2.387,0.92,3.583,1.403
	c0.168,0.067,0.335,0.135,0.504,0.202c1.213,0.495,2.427,1.006,3.641,1.533c0.152,0.064,0.302,0.13,0.453,0.196
	c1.233,0.539,2.467,1.095,3.702,1.667c0.133,0.061,0.265,0.122,0.398,0.185c1.257,0.586,2.514,1.19,3.773,1.811
	c0.712,0.351,1.422,0.691,2.134,1.053c37.907,19.253,70.012,50.796,90.273,73.87C485.121,272.029,485.121,297.567,470.238,314.498z"
	/>
<path d="M175.358,300.416c-0.995,0-2.007-0.107-2.986-0.306c-0.98-0.184-1.946-0.49-2.863-0.873
	c-0.934-0.383-1.822-0.857-2.647-1.409c-0.844-0.55-1.625-1.194-2.329-1.899c-0.704-0.704-1.347-1.485-1.899-2.327
	c-0.55-0.827-1.026-1.715-1.409-2.649c-0.383-0.919-0.672-1.882-0.871-2.862c-0.201-0.981-0.306-1.992-0.306-2.986
	c0-0.995,0.106-2.007,0.306-2.986c0.199-0.98,0.488-1.946,0.871-2.863c0.383-0.934,0.859-1.821,1.409-2.647
	c0.551-0.844,1.194-1.625,1.899-2.329c0.704-0.704,1.485-1.347,2.329-1.899c0.825-0.567,1.713-1.026,2.647-1.409
	c0.919-0.383,1.883-0.689,2.863-0.888c1.975-0.383,4.012-0.383,5.987,0c0.965,0.199,1.929,0.505,2.863,0.888
	c0.919,0.383,1.807,0.842,2.634,1.409c0.842,0.551,1.623,1.194,2.327,1.899s1.349,1.485,1.914,2.329
	c0.551,0.827,1.026,1.713,1.409,2.647c0.383,0.919,0.674,1.883,0.873,2.863c0.199,0.98,0.291,1.991,0.291,2.986
	c0,0.994-0.093,2.006-0.291,2.986c-0.199,0.98-0.49,1.945-0.873,2.862c-0.383,0.934-0.857,1.822-1.409,2.649
	c-0.565,0.842-1.21,1.623-1.914,2.327s-1.485,1.349-2.327,1.899c-0.827,0.551-1.715,1.026-2.634,1.409
	c-0.934,0.383-1.899,0.689-2.863,0.873C177.362,300.309,176.352,300.416,175.358,300.416z"/>
</svg>